<svg id="Ebene_1" data-name="Ebene 1" xmlns="http://www.w3.org/2000/svg" viewBox="0 0 566.93 283.46"><title>Hololux_Logo_RZ</title><path d="M233.24,143c0-6-1-9.26-3.69-12.05a12.25,12.25,0,0,0-8.81-3.77c-2.61,0-4.32.45-11.06,2.78-1.17.45-2.88,1-5.12,1.8v-23.1l-21.49,2.92v1.75l7.64,4.5v48.26l-7.64,4.51v1.78H210.4v-1.8l-5.84-3.43V135.08a40.75,40.75,0,0,1,6.38-.45c6.38,0,8.36,2.51,8.36,10.87v22l-5.3,3.1v1.8h26.79v-1.86l-7.55-4.43Z"/><path d="M268.75,127.62c-15.28,0-25.08,9.43-25.08,23.9,0,13.48,9.43,22.2,24.09,22.2,15.1,0,25.08-9.43,25.08-23.73C292.84,136.33,283.49,127.62,268.75,127.62Zm-.45,40.71a7.46,7.46,0,0,1-7.37-4.4c-1.89-3.51-3-8.63-3-14.2,0-11.15,3.6-17.17,10.16-17.17,3.42,0,5.75,1.44,7.46,4.58a31.91,31.91,0,0,1,3,14.2C278.55,162.31,274.86,168.33,268.3,168.33Z"/><polygon points="318.38 108.65 296.89 111.53 296.89 113.32 304.53 117.82 304.53 166.08 296.89 170.58 296.89 172.37 326.02 172.37 326.02 170.6 318.38 166.08 318.38 108.65"/><path d="M354.25,127.62c-15.28,0-25.08,9.43-25.08,23.9,0,13.48,9.44,22.2,24.09,22.2,15.1,0,25.08-9.43,25.08-23.73C378.34,136.33,369,127.62,354.25,127.62Zm-.45,40.71a7.46,7.46,0,0,1-7.37-4.4c-1.89-3.51-3-8.63-3-14.2,0-11.15,3.6-17.17,10.16-17.17,3.42,0,5.75,1.44,7.46,4.58a31.91,31.91,0,0,1,3,14.2C364.05,162.31,360.36,168.33,353.8,168.33Z"/><polygon points="403.88 108.65 382.39 111.53 382.39 113.32 390.03 117.82 390.03 166.08 382.39 170.58 382.39 172.37 411.52 172.37 411.52 170.59 403.88 166.08 403.88 108.65"/><path d="M462.59,126.9l-21.49,2.61v1.79l7.64,4.49v29.66a34.18,34.18,0,0,1-5.93.45C435.44,165.9,434,164,434,155V126.9l-21.49,2.67v1.79l7.55,4.43v21.93c0,6.39.9,9.17,3.6,12a12.5,12.5,0,0,0,8.9,3.59c2.79,0,5.39-.63,11.33-2.78l4.85-1.8V174l21.49-3.54v-1.66l-7.64-4.52Z"/><path d="M516.66,166.71l-13-19.23,17.81-17.64v-1.77h-17.9v1.77l4.45,2.62-6.87,11.6c-1.8-2.78-2.52-3.86-3.69-5.57l-3.51-5.84,4.77-2.81v-1.77H473.6v1.77l6.47,3.81,11.51,17.69-19.33,19.23v1.8h17.89v-1.8l-4.25-2.49,8.47-12.78,7.71,12.76-4.29,2.51v1.8h25.44v-1.8Z"/><path d="M42.11,111.09v61.29L95.19,203l53.08-30.65V111.09L95.19,80.44Zm3.19,1.84L95.19,84.12V97.48L56.86,119.6V162L45.3,168.69Zm99.78,57.61h0l-49.89,28.8L46.9,171.46l11.56-6.68L95.19,186l38.33-22.13ZM130.33,162,95.19,182.3h0V169h0l23.57-13.61V130l11.57-6.68ZM74.81,153.5V130L95.19,118.2,115.57,130V153.5L95.19,165.27Zm42.36-26.3-22-12.69L71.62,128.12h0l-11.56-6.67h0l35.13-20.29,33.54,19.37Z"/></svg>